<?xml version="1.0" encoding="utf-8"?>
<!-- Generator: Adobe Illustrator 21.0.2, SVG Export Plug-In . SVG Version: 6.00 Build 0)  -->
<svg version="1.1" id="Capa_1" xmlns="http://www.w3.org/2000/svg" xmlns:xlink="http://www.w3.org/1999/xlink" x="0px" y="0px"
	 viewBox="0 0 477.1 134.7" style="enable-background:new 0 0 477.1 134.7;" xml:space="preserve">
<style type="text/css">
	.st0{fill:#3752F5;}
	.st1{fill:#12FFC6;}
</style>
<rect class="st0" width="477.1" height="134.7"/>
<g>
	<g>
		<path class="st1" d="M34.9,38c-3.2-3.2-3.2-8.4,0-11.6c3.2-3.2,8.4-3.2,11.6,0c3.2,3.2,3.2,8.4,0,11.6
			C43.3,41.2,38.1,41.2,34.9,38"/>
		<ellipse transform="matrix(0.7072 -0.707 0.707 0.7072 -10.8535 38.2111)" class="st1" cx="40.7" cy="32.2" rx="8.2" ry="8.2"/>
		<path class="st1" d="M94.1,46.7c-3.5-3.5-3.5-9.1,0-12.6c3.5-3.5,9.1-3.5,12.6,0c3.5,3.5,3.5,9.1,0,12.6
			C103.2,50.1,97.6,50.1,94.1,46.7"/>
		<ellipse transform="matrix(0.7071 -0.7071 0.7071 0.7071 0.8819 82.8057)" class="st1" cx="100.4" cy="40.3" rx="8.9" ry="8.9"/>
		<path class="st1" d="M51.6,30.7c-3.2-3.2-3.2-8.4,0-11.6c3.2-3.2,8.4-3.2,11.6,0c3.2,3.2,3.2,8.4,0,11.6
			C60,33.9,54.8,33.9,51.6,30.7"/>
		<ellipse transform="matrix(0.707 -0.7072 0.7072 0.707 -0.8356 47.8949)" class="st1" cx="57.4" cy="25" rx="8.2" ry="8.2"/>
		<path class="st1" d="M17.8,66.1c-3.5-3.5-3.5-9.1,0-12.5c3.5-3.5,9.1-3.5,12.5,0c3.5,3.5,3.5,9.1,0,12.5
			C26.9,69.6,21.3,69.6,17.8,66.1"/>
		<ellipse transform="matrix(0.7071 -0.7071 0.7071 0.7071 -35.2791 34.5489)" class="st1" cx="24.1" cy="59.9" rx="8.9" ry="8.9"/>
		<path class="st1" d="M11,43.4c-3.7-3.7-3.7-9.8,0-13.5c3.7-3.7,9.8-3.7,13.5,0c3.7,3.7,3.7,9.8,0,13.5
			C20.8,47.1,14.7,47.1,11,43.4"/>
		<ellipse transform="matrix(0.7071 -0.7071 0.7071 0.7071 -20.6925 23.2699)" class="st1" cx="17.7" cy="36.6" rx="9.6" ry="9.6"/>
		<path class="st1" d="M81.2,17.6c-3.3-3.3-3.3-8.7,0-12c3.3-3.3,8.7-3.3,12,0c3.3,3.3,3.3,8.7,0,12C89.8,20.9,84.5,20.9,81.2,17.6"
			/>
		<ellipse transform="matrix(0.7071 -0.7071 0.7071 0.7071 17.2959 65.0278)" class="st1" cx="87.1" cy="11.6" rx="8.5" ry="8.5"/>
		<path class="st1" d="M33.1,21c-3.4-3.4-3.4-8.8,0-12.2c3.4-3.4,8.8-3.4,12.2,0c3.4,3.4,3.4,8.8,0,12.2
			C41.9,24.4,36.5,24.4,33.1,21"/>
		<ellipse transform="matrix(0.7072 -0.707 0.707 0.7072 0.9239 32.0842)" class="st1" cx="39.2" cy="14.9" rx="8.6" ry="8.6"/>
		<path class="st1" d="M96.9,22c-1.9-1.9-1.9-5,0-6.9c1.9-1.9,5-1.9,6.9,0c1.9,1.9,1.9,5,0,6.9C101.9,23.9,98.8,23.9,96.9,22"/>
		<ellipse transform="matrix(0.7072 -0.7071 0.7071 0.7072 16.2782 76.4164)" class="st1" cx="100.4" cy="18.6" rx="4.9" ry="4.9"/>
		<path class="st1" d="M7.3,54.5c-1.9-1.9-1.9-5,0-6.9c1.9-1.9,5-1.9,6.9,0c1.9,1.9,1.9,5,0,6.9C12.3,56.5,9.2,56.5,7.3,54.5"/>
		<ellipse transform="matrix(0.7071 -0.7071 0.7071 0.7071 -32.9664 22.5789)" class="st1" cx="10.8" cy="51.1" rx="4.9" ry="4.9"/>
		<path class="st1" d="M49.3,13.5c-1.9-1.9-1.9-5,0-6.9c1.9-1.9,5-1.9,6.9,0c1.9,1.9,1.9,5,0,6.9C54.4,15.4,51.2,15.4,49.3,13.5"/>
		<ellipse transform="matrix(0.7072 -0.707 0.707 0.7072 8.3713 40.2668)" class="st1" cx="52.8" cy="10" rx="4.9" ry="4.9"/>
		<path class="st1" d="M22.6,26.9c-1.9-1.9-1.9-5,0-6.9c1.9-1.9,5-1.9,6.9,0c1.9,1.9,1.9,5,0,6.9C27.6,28.8,24.5,28.8,22.6,26.9"/>
		<ellipse transform="matrix(0.7071 -0.7072 0.7072 0.7071 -8.9585 25.2954)" class="st1" cx="26.1" cy="23.5" rx="4.9" ry="4.9"/>
		<path class="st1" d="M69.5,27.6c-1.9-1.9-1.9-5,0-6.9c1.9-1.9,5-1.9,6.9,0c1.9,1.9,1.9,5,0,6.9C74.5,29.5,71.4,29.5,69.5,27.6"/>
		<ellipse transform="matrix(0.7071 -0.7071 0.7071 0.7071 4.2812 58.6435)" class="st1" cx="72.9" cy="24.2" rx="4.9" ry="4.9"/>
		<path class="st1" d="M27.5,47.6c-1.9-1.9-1.9-5,0-6.9c1.9-1.9,5-1.9,6.9,0c1.9,1.9,1.9,5,0,6.9C32.5,49.5,29.4,49.5,27.5,47.6"/>
		<ellipse transform="matrix(0.7071 -0.7072 0.7072 0.7071 -22.153 34.823)" class="st1" cx="31" cy="44.1" rx="4.9" ry="4.9"/>
		<path class="st1" d="M107.7,35c-3.3-3.3-3.3-8.6,0-11.9c3.3-3.3,8.6-3.3,11.9,0c3.3,3.3,3.3,8.6,0,11.9
			C116.3,38.3,111,38.3,107.7,35"/>
		<ellipse transform="matrix(0.7071 -0.7072 0.7072 0.7071 12.7387 88.8608)" class="st1" cx="113.6" cy="29.1" rx="8.4" ry="8.4"/>
		<path class="st1" d="M2.5,73.1c-3.3-3.3-3.3-8.6,0-11.9c3.3-3.3,8.6-3.3,11.9,0c3.3,3.3,3.3,8.6,0,11.9
			C11.1,76.4,5.8,76.4,2.5,73.1"/>
		<ellipse transform="matrix(0.7071 -0.7072 0.7072 0.7071 -45.0071 25.6182)" class="st1" cx="8.4" cy="67.1" rx="8.4" ry="8.4"/>
		<path class="st1" d="M61.1,16.7c-3.8-3.8-3.8-10,0-13.8c3.8-3.8,10-3.8,13.8,0c3.8,3.8,3.8,10,0,13.8
			C71.1,20.5,64.9,20.5,61.1,16.7"/>
		<ellipse transform="matrix(0.7071 -0.7071 0.7071 0.7071 13.0248 50.9612)" class="st1" cx="68" cy="9.8" rx="9.8" ry="9.8"/>
		<path class="st1" d="M81.4,35c-3.3-3.3-3.3-8.6,0-11.9c3.3-3.3,8.6-3.3,11.9,0c3.3,3.3,3.3,8.6,0,11.9C90,38.3,84.7,38.3,81.4,35"
			/>
		<ellipse transform="matrix(0.7071 -0.7071 0.7071 0.7071 5.0439 70.2867)" class="st1" cx="87.4" cy="29.1" rx="8.4" ry="8.4"/>
		<path class="st1" d="M96.2,86.5c-3,2.9-3,7.7,0,10.7c2.9,3,7.7,3,10.7,0c3-2.9,3-7.7,0-10.7C103.9,83.5,99.2,83.5,96.2,86.5"/>
		<ellipse transform="matrix(0.707 -0.7072 0.7072 0.707 -35.1871 98.7137)" class="st1" cx="101.5" cy="91.8" rx="7.6" ry="7.6"/>
		<path class="st1" d="M54.1,103.8c-3.5,3.5-3.5,9.1,0,12.6c3.5,3.5,9.1,3.5,12.6,0c3.5-3.5,3.5-9.1,0-12.6
			C63.2,100.3,57.6,100.3,54.1,103.8"/>
		
			<ellipse transform="matrix(0.7071 -0.7071 0.7071 0.7071 -60.1763 74.9505)" class="st1" cx="60.4" cy="110.1" rx="8.9" ry="8.9"/>
		<path class="st1" d="M19.9,70.8c-3,2.9-3,7.7,0,10.7c3,3,7.7,3,10.7,0c3-3,3-7.7,0-10.7C27.6,67.8,22.8,67.8,19.9,70.8"/>
		<ellipse transform="matrix(0.7071 -0.7071 0.7071 0.7071 -46.4216 40.132)" class="st1" cx="25.2" cy="76.1" rx="7.6" ry="7.6"/>
		<path class="st1" d="M12.2,90.8c-3.7,3.7-3.7,9.7,0,13.3c3.7,3.7,9.7,3.7,13.3,0c3.7-3.7,3.7-9.6,0-13.3
			C21.9,87.2,15.9,87.2,12.2,90.8"/>
		<ellipse transform="matrix(0.7071 -0.7071 0.7071 0.7071 -63.4034 41.9196)" class="st1" cx="18.9" cy="97.5" rx="9.4" ry="9.4"/>
		<path class="st1" d="M82.3,117.8c-2.9,2.9-2.9,7.7,0,10.7c3,3,7.7,3,10.7,0c2.9-2.9,2.9-7.7,0-10.7
			C90.1,114.8,85.3,114.8,82.3,117.8"/>
		
			<ellipse transform="matrix(0.7071 -0.7071 0.7071 0.7071 -61.3789 98.0429)" class="st1" cx="87.7" cy="123.1" rx="7.6" ry="7.6"/>
		<path class="st1" d="M33.4,115.1c-3,2.9-3,7.7,0,10.7c3,3,7.7,3,10.7,0c3-2.9,3-7.7,0-10.7C41.1,112.2,36.3,112.2,33.4,115.1"/>
		<ellipse transform="matrix(0.707 -0.7072 0.7072 0.707 -73.8356 62.6828)" class="st1" cx="38.7" cy="120.5" rx="7.6" ry="7.6"/>
		<path class="st1" d="M98.1,112.1c-1.9,1.9-1.9,5,0,6.9c1.9,1.9,5,1.9,6.9,0c1.9-1.9,1.9-5,0-6.9C103.1,110.2,100,110.2,98.1,112.1
			"/>
		<ellipse transform="matrix(0.707 -0.7072 0.7072 0.707 -51.9672 105.675)" class="st1" cx="101.6" cy="115.6" rx="4.9" ry="4.9"/>
		<path class="st1" d="M8.5,79.6c-1.9,1.9-1.9,5,0,6.9c1.9,1.9,5,1.9,6.9,0c1.9-1.9,1.9-5,0-6.9C13.5,77.6,10.4,77.6,8.5,79.6"/>
		<ellipse transform="matrix(0.707 -0.7072 0.7072 0.707 -55.2248 32.7663)" class="st1" cx="11.9" cy="83" rx="4.9" ry="4.9"/>
		<path class="st1" d="M50.5,120.6c-1.9,1.9-1.9,5,0,6.9c1.9,1.9,5,1.9,6.9,0c1.9-1.9,1.9-5,0-6.9C55.5,118.7,52.4,118.7,50.5,120.6
			"/>
		<ellipse transform="matrix(0.7071 -0.7071 0.7071 0.7071 -71.9378 74.5009)" class="st1" cx="54" cy="124.1" rx="4.9" ry="4.9"/>
		<path class="st1" d="M23.7,107.2c-1.9,1.9-1.9,5,0,6.9c1.9,1.9,5,1.9,6.9,0c1.9-1.9,1.9-5,0-6.9C28.8,105.3,25.7,105.3,23.7,107.2
			"/>
		
			<ellipse transform="matrix(0.7071 -0.7071 0.7071 0.7071 -70.2737 51.6511)" class="st1" cx="27.2" cy="110.7" rx="4.9" ry="4.9"/>
		<path class="st1" d="M70.6,106.5c-1.9,1.9-1.9,5,0,6.9c1.9,1.9,5,1.9,6.9,0c1.9-1.9,1.9-5,0-6.9C75.6,104.6,72.5,104.6,70.6,106.5
			"/>
		<ellipse transform="matrix(0.7071 -0.7072 0.7072 0.7071 -56.0546 84.6046)" class="st1" cx="74.1" cy="110" rx="4.9" ry="4.9"/>
		<path class="st1" d="M28.6,86.5c-1.9,1.9-1.9,5,0,6.9c1.9,1.9,5,1.9,6.9,0c1.9-1.9,1.9-5,0-6.9C33.7,84.6,30.6,84.6,28.6,86.5"/>
		<ellipse transform="matrix(0.7071 -0.7071 0.7071 0.7071 -54.2081 49.0578)" class="st1" cx="32.1" cy="90" rx="4.9" ry="4.9"/>
		<path class="st1" d="M108.8,99.1c-3.3,3.3-3.3,8.6,0,11.9c3.3,3.3,8.6,3.3,11.9,0c3.3-3.3,3.3-8.6,0-11.9
			C117.4,95.8,112.1,95.8,108.8,99.1"/>
		<ellipse transform="matrix(0.707 -0.7072 0.7072 0.707 -40.667 111.9572)" class="st1" cx="114.8" cy="105.1" rx="8.4" ry="8.4"/>
		<path class="st1" d="M35.9,96.3c-3.8,3.8-3.8,10,0,13.8c3.8,3.8,10,3.8,13.9,0c3.8-3.8,3.8-10,0-13.8
			C45.9,92.5,39.7,92.5,35.9,96.3"/>
		<ellipse transform="matrix(0.707 -0.7072 0.7072 0.707 -60.4388 60.5321)" class="st1" cx="42.8" cy="103.2" rx="9.8" ry="9.8"/>
		<path class="st1" d="M63.2,120.3c-3.3,3.3-3.3,8.6,0,11.9c3.3,3.3,8.6,3.3,11.9,0c3.3-3.3,3.3-8.6,0-11.9
			C71.9,117,66.5,117,63.2,120.3"/>
		
			<ellipse transform="matrix(0.7071 -0.7071 0.7071 0.7071 -69.0111 85.9081)" class="st1" cx="69.2" cy="126.3" rx="8.4" ry="8.4"/>
		<path class="st1" d="M82.6,99.1c-3.3,3.3-3.3,8.6,0,11.9c3.3,3.3,8.6,3.3,11.9,0c3.3-3.3,3.3-8.6,0-11.9
			C91.2,95.8,85.9,95.8,82.6,99.1"/>
		<ellipse transform="matrix(0.707 -0.7072 0.7072 0.707 -48.3615 93.3854)" class="st1" cx="88.5" cy="105.1" rx="8.4" ry="8.4"/>
	</g>
	<g>
		<g>
			<path class="st1" d="M150.9,116.7c0-2.6,1.9-4.6,4.6-4.6c1.5,0,2.6,0.6,3.4,1.4l-1,1.1c-0.6-0.6-1.4-1-2.4-1c-1.8,0-3,1.4-3,3.2
				c0,1.8,1.3,3.2,3,3.2c1.1,0,1.9-0.5,2.4-1l1,1.1c-0.8,0.8-1.9,1.4-3.4,1.4C152.9,121.3,150.9,119.3,150.9,116.7"/>
			<path class="st1" d="M160,116.7c0-2.6,1.9-4.6,4.6-4.6c2.7,0,4.6,2,4.6,4.6c0,2.6-1.9,4.6-4.6,4.6C162,121.3,160,119.3,160,116.7
				 M167.7,116.7c0-1.8-1.2-3.2-3-3.2c-1.8,0-3.1,1.4-3.1,3.2c0,1.8,1.2,3.2,3.1,3.2C166.5,119.9,167.7,118.5,167.7,116.7"/>
			<rect x="170.9" y="115.5" class="st1" width="4.3" height="1.6"/>
			<path class="st1" d="M176.9,116.7c0-2.6,2-4.6,4.6-4.6c1.5,0,2.6,0.6,3.4,1.4l-1,1.1c-0.6-0.6-1.4-1-2.4-1c-1.8,0-3,1.4-3,3.2
				c0,1.8,1.3,3.2,3,3.2c1.1,0,1.9-0.5,2.4-1l1,1.1c-0.8,0.8-1.9,1.4-3.4,1.4C178.8,121.3,176.9,119.3,176.9,116.7"/>
			<path class="st1" d="M186.9,112.2h1.5v1.1c0.6-0.8,1.5-1.1,2.5-1.1c0.2,0,0.4,0,0.6,0.1v1.6c-0.2-0.1-0.5-0.1-0.9-0.1
				c-1,0-1.8,0.5-2.2,1.4v6.1h-1.5V112.2z"/>
			<path class="st1" d="M192.4,116.7c0-2.6,2-4.6,4.5-4.6c2.5,0,4.3,1.8,4.4,5H194c0.1,1.6,1.4,2.8,3,2.8c1.1,0,2-0.5,2.6-1.1l1,1.1
				c-0.8,0.8-2,1.5-3.6,1.5C194.4,121.3,192.4,119.3,192.4,116.7 M194.1,115.7h5.5c-0.2-1.5-1.4-2.3-2.7-2.2
				C195.5,113.5,194.4,114.4,194.1,115.7"/>
			<path class="st1" d="M210.1,120.3c-0.8,0.7-1.8,1-2.8,1c-2.6,0-4.6-2-4.6-4.6c0-2.6,1.9-4.6,4.6-4.6c1.1,0,2.1,0.4,2.8,1v-0.9
				h1.5v8.9h-1.5V120.3z M210.1,118.4V115c-0.5-0.8-1.5-1.5-2.8-1.5c-1.8,0-3,1.4-3,3.2c0,1.8,1.2,3.2,3,3.2
				C208.6,119.9,209.6,119.3,210.1,118.4"/>
			<path class="st1" d="M213.1,112.2h1.8v-1.9l1.5-0.8v2.7h2.7l-0.3,1.4h-2.4v4.7c0,0.9,0.3,1.4,1.3,1.4h1.2v1.4h-1.4
				c-1.7,0-2.7-0.9-2.7-2.6v-5h-1.4L213.1,112.2z"/>
			<path class="st1" d="M220.3,116.7c0-2.6,2-4.6,4.5-4.6c2.5,0,4.3,1.8,4.4,5h-7.3c0.1,1.6,1.4,2.8,3,2.8c1.1,0,2-0.5,2.6-1.1
				l1,1.1c-0.8,0.8-2,1.5-3.6,1.5C222.3,121.3,220.3,119.3,220.3,116.7 M222,115.7h5.5c-0.2-1.5-1.4-2.3-2.7-2.2
				C223.4,113.5,222.3,114.4,222,115.7"/>
			<path class="st1" d="M235.4,116.3c0-0.7,0.6-1.3,1.3-1.3c0.7,0,1.3,0.6,1.3,1.3c0,0.7-0.6,1.3-1.3,1.3
				C236,117.6,235.4,117.1,235.4,116.3"/>
			<path class="st1" d="M244.4,116.7c0-2.6,1.9-4.6,4.6-4.6c1.5,0,2.6,0.6,3.4,1.4l-1,1.1c-0.6-0.6-1.4-1-2.4-1c-1.8,0-3,1.4-3,3.2
				c0,1.8,1.2,3.2,3,3.2c1.1,0,1.9-0.5,2.4-1l1,1.1c-0.8,0.8-1.9,1.4-3.4,1.4C246.3,121.3,244.4,119.3,244.4,116.7"/>
			<path class="st1" d="M253.5,116.7c0-2.6,1.9-4.6,4.6-4.6c2.7,0,4.6,2,4.6,4.6c0,2.6-1.9,4.6-4.6,4.6
				C255.4,121.3,253.5,119.3,253.5,116.7 M261.2,116.7c0-1.8-1.2-3.2-3-3.2c-1.8,0-3.1,1.4-3.1,3.2c0,1.8,1.2,3.2,3.1,3.2
				C259.9,119.9,261.2,118.5,261.2,116.7"/>
			<rect x="264.4" y="115.5" class="st1" width="4.3" height="1.6"/>
			<path class="st1" d="M270.9,112.2h1.5v0.9c0.7-0.7,1.7-1,2.8-1c2.6,0,4.6,2,4.6,4.6c0,2.6-1.9,4.6-4.6,4.6c-1.1,0-2.1-0.4-2.8-1
				v4.2h-1.5V112.2z M272.4,115v3.4c0.5,0.8,1.5,1.4,2.8,1.4c1.8,0,3-1.4,3-3.2c0-1.8-1.2-3.2-3-3.2
				C274,113.5,272.9,114.2,272.4,115"/>
			<path class="st1" d="M282,112.2h1.5v1.1c0.6-0.8,1.5-1.1,2.5-1.1c0.2,0,0.4,0,0.6,0.1v1.6c-0.2-0.1-0.5-0.1-0.9-0.1
				c-1,0-1.8,0.5-2.2,1.4v6.1H282V112.2z"/>
			<path class="st1" d="M287.5,116.7c0-2.6,1.9-4.6,4.6-4.6c2.7,0,4.6,2,4.6,4.6c0,2.6-1.9,4.6-4.6,4.6
				C289.4,121.3,287.5,119.3,287.5,116.7 M295.2,116.7c0-1.8-1.2-3.2-3-3.2c-1.8,0-3.1,1.4-3.1,3.2c0,1.8,1.2,3.2,3.1,3.2
				C293.9,119.9,295.2,118.5,295.2,116.7"/>
			<path class="st1" d="M305.7,120.3c-0.8,0.7-1.8,1-2.8,1c-2.6,0-4.6-2-4.6-4.6c0-2.6,1.9-4.6,4.6-4.6c1.1,0,2.1,0.4,2.8,1v-4.7
				h1.5v12.7h-1.5V120.3z M305.7,118.4V115c-0.5-0.8-1.5-1.5-2.8-1.5c-1.8,0-3,1.4-3,3.2c0,1.8,1.3,3.2,3,3.2
				C304.2,119.9,305.2,119.3,305.7,118.4"/>
			<path class="st1" d="M315.9,120.2c-0.7,0.9-1.7,1.1-2.8,1.1c-2,0-3.4-1.4-3.4-3.6v-5.5h1.5v5.4c0,1.3,0.9,2.3,2.2,2.3
				c1.2,0,2.1-0.7,2.4-1.8v-5.9h1.5v8.9h-1.5V120.2z"/>
			<path class="st1" d="M319.6,116.7c0-2.6,1.9-4.6,4.6-4.6c1.5,0,2.6,0.6,3.4,1.4l-1,1.1c-0.6-0.6-1.4-1-2.4-1c-1.8,0-3,1.4-3,3.2
				c0,1.8,1.3,3.2,3,3.2c1.1,0,1.9-0.5,2.4-1l1,1.1c-0.8,0.8-1.9,1.4-3.4,1.4C321.5,121.3,319.6,119.3,319.6,116.7"/>
			<path class="st1" d="M328.7,116.7c0-2.6,2-4.6,4.5-4.6c2.5,0,4.3,1.8,4.4,5h-7.3c0.1,1.6,1.4,2.8,3,2.8c1.1,0,2-0.5,2.6-1.1
				l1,1.1c-0.8,0.8-2,1.5-3.6,1.5C330.7,121.3,328.7,119.3,328.7,116.7 M330.4,115.7h5.5c-0.2-1.5-1.4-2.3-2.7-2.2
				C331.8,113.5,330.7,114.4,330.4,115.7"/>
			<path class="st1" d="M343.8,116.3c0-0.7,0.6-1.3,1.3-1.3c0.7,0,1.3,0.6,1.3,1.3c0,0.7-0.6,1.3-1.3,1.3
				C344.4,117.6,343.8,117.1,343.8,116.3"/>
			<path class="st1" d="M352.7,116.7c0-2.6,1.9-4.6,4.6-4.6c1.5,0,2.6,0.6,3.4,1.4l-1,1.1c-0.6-0.6-1.4-1-2.4-1c-1.8,0-3,1.4-3,3.2
				c0,1.8,1.2,3.2,3,3.2c1.1,0,1.9-0.5,2.4-1l1,1.1c-0.8,0.8-1.9,1.4-3.4,1.4C354.7,121.3,352.7,119.3,352.7,116.7"/>
			<path class="st1" d="M361.8,116.7c0-2.6,1.9-4.6,4.7-4.6c2.7,0,4.6,2,4.6,4.6c0,2.6-2,4.6-4.6,4.6
				C363.8,121.3,361.8,119.3,361.8,116.7 M369.5,116.7c0-1.8-1.2-3.2-3-3.2c-1.8,0-3.1,1.4-3.1,3.2c0,1.8,1.2,3.2,3.1,3.2
				C368.3,119.9,369.5,118.5,369.5,116.7"/>
			<rect x="372.7" y="115.5" class="st1" width="4.3" height="1.6"/>
			<path class="st1" d="M390.8,115.8c0-1.3-0.8-2.3-2-2.3c-1.1,0-1.9,0.7-2.2,1.8c0,0.1,0,0.3,0,0.4v5.5H385v-5.4
				c0-1.3-0.8-2.3-2.1-2.3c-1,0-1.8,0.6-2.2,1.7v6h-1.5v-8.9h1.5v1c0.7-0.8,1.6-1.1,2.5-1.1c1.2,0,2.1,0.5,2.7,1.5
				c0.8-1.2,2.1-1.5,3-1.5c2,0,3.3,1.4,3.3,3.6v5.5h-1.5V115.8z"/>
			<path class="st1" d="M401.7,120.3c-0.8,0.7-1.8,1-2.8,1c-2.6,0-4.6-2-4.6-4.6c0-2.6,1.9-4.6,4.6-4.6c1.1,0,2.1,0.4,2.8,1v-0.9
				h1.5v8.9h-1.5V120.3z M401.7,118.4V115c-0.5-0.8-1.5-1.5-2.8-1.5c-1.8,0-3,1.4-3,3.2c0,1.8,1.2,3.2,3,3.2
				C400.2,119.9,401.2,119.3,401.7,118.4"/>
			<path class="st1" d="M406,112.2h1.5v1c0.7-0.9,1.7-1.2,2.8-1.2c2,0,3.5,1.4,3.5,3.6v5.5h-1.5v-5.4c0-1.3-0.9-2.3-2.3-2.3
				c-1.3,0-2.1,0.7-2.4,1.9v5.8H406V112.2z"/>
			<path class="st1" d="M423.2,120.3c-0.8,0.7-1.8,1-2.8,1c-2.6,0-4.6-2-4.6-4.6c0-2.6,1.9-4.6,4.6-4.6c1.1,0,2.1,0.4,2.8,1v-0.9
				h1.5v8.9h-1.5V120.3z M423.2,118.4V115c-0.5-0.8-1.5-1.5-2.8-1.5c-1.8,0-3,1.4-3,3.2c0,1.8,1.2,3.2,3,3.2
				C421.7,119.9,422.7,119.3,423.2,118.4"/>
			<path class="st1" d="M427.5,123.6l0.8-1.3c0.8,0.5,1.9,0.9,3.1,0.9c1.6,0,3-0.6,3-2.3c0-0.3-0.1-0.8-0.2-1.1
				c-0.7,0.7-1.7,1.1-2.8,1.1c-2.6,0-4.4-1.9-4.4-4.4c0-2.5,1.8-4.4,4.4-4.4c1.1,0,2.1,0.4,2.8,1.1v-0.9h1.5v7.1
				c0.2,0.6,0.3,1.2,0.3,1.8c0,2.6-2.4,3.5-4.7,3.5C430,124.7,428.6,124.3,427.5,123.6 M434.1,118v-3c-0.5-0.8-1.5-1.5-2.8-1.5
				c-1.7,0-2.9,1.3-2.9,3c0,1.7,1.2,3,2.9,3C432.6,119.5,433.6,118.9,434.1,118"/>
			<path class="st1" d="M437.8,116.7c0-2.6,2-4.6,4.5-4.6c2.5,0,4.3,1.8,4.4,5h-7.3c0.1,1.6,1.4,2.8,3,2.8c1.1,0,2-0.5,2.6-1.1
				l1,1.1c-0.8,0.8-2,1.5-3.6,1.5C439.8,121.3,437.8,119.3,437.8,116.7 M439.5,115.7h5.4c-0.2-1.5-1.4-2.3-2.7-2.2
				C440.9,113.5,439.8,114.4,439.5,115.7"/>
		</g>
		<g>
			<path class="st1" d="M129.3,68.4c0-10.1,8.2-18.3,18.5-18.3c6.5,0,12.3,3.3,15.5,8.4l-8.5,6c-1.4-2.6-3.9-4.4-7-4.4
				c-4.4,0-7.7,3.4-7.7,8.3c0,4.9,3.3,8.3,7.7,8.3c3.1,0,5.6-1.8,7-4.4l8.5,6c-3.3,5-9,8.4-15.5,8.4
				C137.5,86.7,129.3,78.5,129.3,68.4"/>
			<path class="st1" d="M166.4,68.4c0-10.1,8.2-18.3,18.5-18.3c10.2,0,18.5,8.2,18.5,18.3c0,10.1-8.2,18.3-18.5,18.3
				C174.6,86.7,166.4,78.5,166.4,68.4 M192.5,68.4c0-4.9-3.3-8.3-7.7-8.3c-4.4,0-7.7,3.4-7.7,8.3c0,4.9,3.3,8.3,7.7,8.3
				C189.2,76.7,192.5,73.3,192.5,68.4"/>
			<path class="st1" d="M206.5,79.6l7.6-7c1.6,2.3,3.8,4.1,7.1,4.1c4.7,0,7.7-2.9,7.7-7.6c0-4.7-3-7.6-7.7-7.6h-5.1l7.5-15.8h-14.7
				v-10h30.5l-8.4,17.7c5.5,2.8,8.8,8.4,8.8,15.6c0,10.6-7.2,17.6-17.8,17.6C215.5,86.7,209.9,84,206.5,79.6"/>
			<path class="st1" d="M246.5,50.7h10.7v2.1c2.1-1.7,4.9-2.7,7.8-2.7c10.5,0,17.2,8.6,17.2,18.3c0,9.7-6.7,18.3-17.2,18.3
				c-2.9,0-5.8-0.9-7.8-2.6v15.1h-10.7V50.7z M257.2,62.9V74c1.4,1.9,3.4,2.9,6,2.9c5.1,0,8.2-3.8,8.2-8.5c0-4.7-3.1-8.5-8.2-8.5
				C260.6,59.9,258.6,61,257.2,62.9"/>
			<path class="st1" d="M288.7,50.7h10.7v3.1c2-2.4,4.6-3.7,8.1-3.7c1.1,0,2.5,0.1,3.8,0.6v11.1c-1.6-0.8-3.6-1.2-5.5-1.2
				c-2.2,0-4.8,0.8-6.5,2.3v23.2h-10.7V50.7z"/>
			<path class="st1" d="M314.1,68.4c0-10.1,8.2-18.3,18.5-18.3c10.2,0,18.5,8.2,18.5,18.3c0,10.1-8.2,18.3-18.5,18.3
				C322.3,86.7,314.1,78.5,314.1,68.4 M340.2,68.4c0-4.9-3.3-8.3-7.7-8.3s-7.7,3.4-7.7,8.3c0,4.9,3.3,8.3,7.7,8.3
				S340.2,73.3,340.2,68.4"/>
			<path class="st1" d="M350,89.1h1.8c3.4,0,5.6-0.8,5.6-4.3V50.7h10.7v35.5c0,8.7-6.3,13.1-15.7,13.1H350V89.1z M356.4,41.6
				c0-3.6,2.8-6.4,6.4-6.4c3.5,0,6.4,2.8,6.4,6.4c0,1.6-0.5,3-1.4,4h-9.9C356.9,44.6,356.4,43.2,356.4,41.6"/>
			<path class="st1" d="M374.5,68.4c0-10.4,7.4-18.3,18.3-18.3c9,0,17.1,5.9,17.1,17.1c0,1-0.1,2.1-0.2,3.1h-24.9
				c0.5,4.8,4.5,6.6,7.7,6.6c3.8,0,6.2-1.8,7.6-4.5l8.5,5.7c-3.3,5.1-9,8.5-16,8.5C383.2,86.7,374.5,79.4,374.5,68.4 M384.8,64.1
				h14.5c-0.6-3.8-3.7-5.4-7.2-5.4C389.6,58.7,385.8,59.8,384.8,64.1"/>
			<path class="st1" d="M414.1,68.4c0-10.1,8.2-18.3,18.5-18.3c6.5,0,12.3,3.3,15.5,8.4l-8.5,6c-1.4-2.6-3.9-4.4-7-4.4
				c-4.4,0-7.7,3.4-7.7,8.3c0,4.9,3.3,8.3,7.7,8.3c3.1,0,5.6-1.8,7-4.4l8.5,6c-3.3,5-9,8.4-15.5,8.4
				C422.3,86.7,414.1,78.5,414.1,68.4"/>
			<path class="st1" d="M448.2,50.7h7v-5.3l10.7-5.3v10.6h11.2l-2.3,9.4h-8.9v12.1c0,3,1.2,4.2,4.1,4.2h5.8v9.8H466
				c-6.7,0-10.9-4.2-10.9-10.9V60h-4.6L448.2,50.7z"/>
			<path class="st1" d="M369.2,41.6c0,3.5-2.9,6.4-6.4,6.4c-3.5,0-6.4-2.9-6.4-6.4c0-3.5,2.9-6.4,6.4-6.4
				C366.3,35.2,369.2,38.1,369.2,41.6"/>
		</g>
	</g>
</g>
</svg>
